<?xml version="1.0" encoding="utf-8"?>
<!-- Generator: Adobe Illustrator 16.0.4, SVG Export Plug-In . SVG Version: 6.00 Build 0)  -->
<!DOCTYPE svg PUBLIC "-//W3C//DTD SVG 1.1//EN" "http://www.w3.org/Graphics/SVG/1.1/DTD/svg11.dtd">
<svg version="1.1" id="Layer_1" xmlns="http://www.w3.org/2000/svg" xmlns:xlink="http://www.w3.org/1999/xlink" x="0px" y="0px"
	 width="24px" height="24px" viewBox="0 0 24 24" enable-background="new 0 0 24 24" xml:space="preserve">
<g transform="matrix(1 0 0 -1 0 1638)">
	<path d="M16.043,1629.938v4.102h-3.27v-4.102H16.043z M11.004,1632.879v1.172H7.113v-1.172H11.004z M11.004,1629.938v1.16H7.113
		v-1.16H11.004z M16.184,1626.984c1.188,0,2.172-0.395,2.953-1.184s1.227-1.684,1.336-2.684s-0.113-1.918-0.668-2.754l-0.012-0.012
		l2.871-2.883l-0.48-0.48c-0.227-0.227-0.5-0.34-0.82-0.34s-0.59,0.113-0.809,0.34l-2.062,2.062c-0.672-0.453-1.449-0.68-2.332-0.68
		c-1.188,0-2.203,0.422-3.047,1.266c-0.836,0.844-1.254,1.859-1.254,3.047s0.422,2.203,1.266,3.047
		C13.977,1626.566,14.996,1626.984,16.184,1626.984z M16.172,1625.156c-0.664,0-1.246-0.242-1.746-0.727
		c-0.039-0.023-0.07-0.055-0.094-0.094c-0.438-0.492-0.648-1.066-0.633-1.723c0.008-0.664,0.254-1.23,0.738-1.699
		s1.062-0.703,1.734-0.703s1.25,0.242,1.734,0.727s0.727,1.07,0.727,1.758s-0.242,1.266-0.727,1.734
		C17.414,1624.914,16.836,1625.156,16.172,1625.156z M7.113,1625.203v-1.172h3.75c-0.148-0.594-0.199-1.172-0.152-1.734H7.113
		v-1.172h3.797c0.258-0.891,0.715-1.664,1.371-2.32l0.059-0.047H6.469c-0.469,0-0.867,0.164-1.195,0.492s-0.492,0.723-0.492,1.184
		v15.914h11.918c0.461,0,0.855-0.164,1.184-0.492s0.492-0.723,0.492-1.184v-6.984c-0.695,0.312-1.43,0.469-2.203,0.469H7.113v-1.172
		h5.672c-0.641-0.5-1.133-1.094-1.477-1.781H7.113z"/>
</g>
</svg>
