<?xml version="1.0" encoding="utf-8"?>
<!-- Generator: Adobe Illustrator 16.0.4, SVG Export Plug-In . SVG Version: 6.00 Build 0)  -->
<!DOCTYPE svg PUBLIC "-//W3C//DTD SVG 1.1//EN" "http://www.w3.org/Graphics/SVG/1.1/DTD/svg11.dtd">
<svg version="1.1" id="Layer_1" xmlns="http://www.w3.org/2000/svg" xmlns:xlink="http://www.w3.org/1999/xlink" x="0px" y="0px"
	 width="24px" height="24px" viewBox="0 0 24 24" enable-background="new 0 0 24 24" xml:space="preserve">
<g transform="matrix(1 0 0 -1 0 1638)">
	<path d="M16.02,1629.984v4.102h-3.27v-4.102H16.02z M10.98,1632.926v1.172H7.09v-1.172H10.98z M10.98,1629.984v1.16H7.09v-1.16
		H10.98z M16.043,1627.031v1.172H7.09v-1.172H16.043z M4.758,1636.395h11.918c0.461,0,0.855-0.164,1.184-0.492
		s0.492-0.723,0.492-1.184v-9.516l-2.93-2.93l-1.816,1.805h2.438v1.172H7.09v-1.172h3.867l-0.961-0.961l-0.902-0.773H7.09v-1.172
		h4.711l-1.125,1.125l1.512,1.512l3.141-3.129l5.262,5.238c0.258,0.273,0.574,0.41,0.949,0.41s0.695-0.137,0.961-0.41l0.551-0.551
		l-4.699-4.699v-1.863h-1.863l-1.16-1.16l-1.16,1.16H6.445c-0.469,0-0.867,0.164-1.195,0.492s-0.492,0.723-0.492,1.184V1636.395z"/>
</g>
</svg>
