<?xml version="1.0" encoding="utf-8"?>
<!-- Generator: Adobe Illustrator 16.0.4, SVG Export Plug-In . SVG Version: 6.00 Build 0)  -->
<!DOCTYPE svg PUBLIC "-//W3C//DTD SVG 1.1//EN" "http://www.w3.org/Graphics/SVG/1.1/DTD/svg11.dtd">
<svg version="1.1" id="Layer_1" xmlns="http://www.w3.org/2000/svg" xmlns:xlink="http://www.w3.org/1999/xlink" x="0px" y="0px"
	 width="24px" height="24px" viewBox="0 0 24 24" enable-background="new 0 0 24 24" xml:space="preserve">
<g transform="matrix(1 0 0 -1 0 1638)">
	<path d="M10.277,1631.379c-0.688-0.008-1.328-0.223-1.922-0.645s-1.023-0.938-1.289-1.547c-0.273-0.609-0.363-1.273-0.27-1.992
		s0.391-1.355,0.891-1.91c0.75-0.742,1.625-1.129,2.625-1.16s1.883,0.316,2.648,1.043c0.438,0.43,0.742,0.93,0.914,1.5
		s0.195,1.125,0.07,1.664s-0.336,1.039-0.633,1.5s-0.703,0.832-1.219,1.113S10.973,1631.371,10.277,1631.379z M10.406,1634.098
		c1.75,0,3.246-0.625,4.488-1.875c1.07-1.07,1.684-2.352,1.84-3.844s-0.176-2.855-0.996-4.09l4.242-4.242l-0.715-0.715
		c-0.336-0.336-0.738-0.504-1.207-0.504s-0.867,0.168-1.195,0.504l-3.047,3.023c-1.242-0.805-2.613-1.121-4.113-0.949
		s-2.777,0.781-3.832,1.828c-0.805,0.812-1.352,1.766-1.641,2.859s-0.289,2.188,0,3.281s0.844,2.047,1.664,2.859
		C7.152,1633.477,8.656,1634.098,10.406,1634.098z"/>
</g>
</svg>
